<svg width="127" height="128" viewBox="0 0 127 128" fill="none" xmlns="http://www.w3.org/2000/svg">
<path d="M1.04839 8.7034C-1.31711 4.0752 4.07319 -0.641698 8.34669 2.3169L76.34 49.389C80.37 52.1792 78.396 58.5 73.494 58.5H29.5597C27.6818 58.5 25.9622 57.4477 25.1075 55.7756L1.04839 8.7034Z" fill="#7241FF"/>
<path d="M33.2172 72.275C31.5173 68.9481 33.9336 65 37.6696 65H90.883C94.607 65 97.024 68.9238 95.349 72.249L68.934 124.697C67.092 128.353 61.878 128.368 60.0155 124.723L33.2172 72.275Z" fill="#B388FF"/>
<path d="M118.441 1.444C122.693 -1.4101 127.977 3.2138 125.712 7.8068L103.097 53.6675C101.724 56.4517 98.173 57.3249 95.665 55.4948L73.768 39.5131C70.965 37.467 71.048 33.2572 73.929 31.323L118.441 1.444Z" fill="#8C9EFF"/>
</svg>
